<svg width="540" height="540" viewBox="0 0 540 540" fill="none" xmlns="http://www.w3.org/2000/svg">
<rect width="540" height="540" rx="60" fill="#F85197"/>
<path fill-rule="evenodd" clip-rule="evenodd" d="M135 275.014C134.448 275.014 134 274.566 134 274.014V149C134 148.448 134.448 148 135 148H159.869C177.644 148 194.303 165.435 204.514 194.722L212.721 218.264C222.932 247.552 239.592 264.986 257.366 264.986H405C405.552 264.986 406 265.434 406 265.986V391C406 391.552 405.552 392 405 392H293.364C275.59 392 258.931 374.565 248.72 345.278L240.512 321.736C230.301 292.448 213.642 275.014 195.868 275.014H135Z" fill="#1C1C1C"/>
<path fill-rule="evenodd" clip-rule="evenodd" d="M121 288.869C120.448 288.869 120 288.421 120 287.869V137C120 136.448 120.448 136 121 136H159.964C173.761 136 185.82 142.709 195.298 152.479C204.74 162.212 212.345 175.632 217.898 191.32L226.099 214.488L212.771 219.085L204.571 195.916C194.368 167.093 177.723 149.935 159.964 149.935H135.118C134.565 149.935 134.118 150.383 134.118 150.935V273.934C134.118 274.486 134.565 274.934 135.118 274.934H195.932C213.691 274.934 230.336 292.092 240.538 320.915L248.738 344.084C258.94 372.907 275.585 390.065 293.344 390.065H404.882C405.435 390.065 405.882 389.617 405.882 389.065V266.066C405.882 265.514 405.435 265.066 404.882 265.066H257.377C239.618 265.066 222.973 247.908 212.771 219.085L226.099 214.488C230.748 227.623 236.566 237.194 242.437 243.246C248.271 249.26 253.415 251.131 257.377 251.131H419C419.552 251.131 420 251.578 420 252.131V403C420 403.552 419.552 404 419 404H293.344C279.548 404 267.489 397.291 258.011 387.521C248.569 377.788 240.964 364.368 235.411 348.68L227.21 325.512C222.561 312.377 216.743 302.806 210.872 296.754C205.037 290.74 199.894 288.869 195.932 288.869H121Z" fill="white"/>
</svg>
