<svg width="1080" height="1080" viewBox="0 0 540 540" fill="none" xmlns="http://www.w3.org/2000/svg">
  <path fill-rule="evenodd" clip-rule="evenodd" d="M135 273.973C134.448 273.973 134 273.525 134 272.973V149C134 148.448 134.448 148 135 148H159.711C177.377 148 193.935 165.292 204.083 194.339L212.241 217.688C222.389 246.736 238.947 264.027 256.613 264.027H403.339C403.891 264.027 404.339 264.475 404.339 265.027V389C404.339 389.552 403.891 390 403.339 390H292.391C274.726 390 258.168 372.708 248.019 343.661L239.862 320.312C229.713 291.264 213.156 273.973 195.49 273.973H135Z" fill="#F85197"/>
  <path fill-rule="evenodd" clip-rule="evenodd" d="M121 288.869C120.448 288.869 120 288.422 120 287.869V137C120 136.448 120.448 136 121 136H159.882C173.651 136 185.684 142.709 195.143 152.479C204.566 162.212 212.155 175.632 217.697 191.32L225.881 214.488L212.58 219.085L204.397 195.916C194.216 167.093 177.605 149.935 159.882 149.935H135.089C134.536 149.935 134.089 150.383 134.089 150.935V273.934C134.089 274.486 134.536 274.934 135.089 274.934H195.776C213.498 274.934 230.109 292.092 240.29 320.915L248.474 344.084C258.655 372.907 275.266 390.065 292.988 390.065H404.295C404.847 390.065 405.295 389.617 405.295 389.065V266.066C405.295 265.514 404.847 265.066 404.295 265.066H257.095C239.372 265.066 222.762 247.908 212.58 219.085L225.881 214.488C230.52 227.623 236.327 237.194 242.185 243.246C248.008 249.26 253.141 251.131 257.095 251.131H418.384C418.936 251.131 419.384 251.578 419.384 252.131V403C419.384 403.552 418.936 404 418.384 404H292.988C279.22 404 267.186 397.291 257.727 387.521C248.305 377.788 240.715 364.368 235.174 348.68L226.99 325.512C222.35 312.377 216.544 302.806 210.685 296.754C204.863 290.74 199.73 288.869 195.776 288.869H121Z" fill="white"/>
</svg>